<?xml version="1.0" encoding="utf-8"?>
<!-- Generator: Adobe Illustrator 25.2.3, SVG Export Plug-In . SVG Version: 6.00 Build 0)  -->
<svg version="1.1" xmlns="http://www.w3.org/2000/svg" xmlns:xlink="http://www.w3.org/1999/xlink" x="0px" y="0px"
	 viewBox="0 0 360 360" style="enable-background:new 0 0 360 360;" xml:space="preserve">
<style type="text/css">
	.st0{fill:#FFFFFF;}
	.st1{fill:none;}
	.st2{fill:#EBEBEB;}
	.st3{fill:none;stroke:#FFFFFF;stroke-width:0.53;stroke-linejoin:round;stroke-miterlimit:10;}
	.st4{fill:none;stroke:#FFFFFF;stroke-width:1.07;stroke-linejoin:round;stroke-miterlimit:10;}
	.st5{fill:#6FB0D8;}
	.st6{fill:#4D4D4D;}
	.st7{font-family:'Alice-Regular';}
	.st8{font-size:8px;}
	.st9{enable-background:new    ;}
	.st10{font-size:7px;}
	.st11{fill:none;stroke:#333333;stroke-width:1.07;stroke-linejoin:round;stroke-miterlimit:10;}
	.st12{font-size:12px;}
	.st13{letter-spacing:1;}
</style>
<g id="Layer_2">
	<rect class="st0" width="360" height="360"/>
</g>
<g id="Layer_1">
	<rect x="61" y="23.2" class="st1" width="293.5" height="305.3"/>
	<rect x="61" y="23.2" class="st2" width="293.5" height="305.3"/>
	<rect x="61" y="23.2" class="st1" width="293.5" height="305.3"/>
	<line class="st3" x1="126.6" y1="328.5" x2="126.6" y2="23.2"/>
	<rect x="61" y="23.2" class="st1" width="293.5" height="305.3"/>
	<line class="st3" x1="231.2" y1="328.5" x2="231.2" y2="23.2"/>
	<rect x="61" y="23.2" class="st1" width="293.5" height="305.3"/>
	<line class="st3" x1="335.8" y1="328.5" x2="335.8" y2="23.2"/>
	<rect x="61" y="23.2" class="st1" width="293.5" height="305.3"/>
	<line class="st4" x1="61" y1="316.5" x2="354.5" y2="316.5"/>
	<rect x="61" y="23.2" class="st1" width="293.5" height="305.3"/>
	<line class="st4" x1="61" y1="296.4" x2="354.5" y2="296.4"/>
	<rect x="61" y="23.2" class="st1" width="293.5" height="305.3"/>
	<line class="st4" x1="61" y1="276.3" x2="354.5" y2="276.3"/>
	<rect x="61" y="23.2" class="st1" width="293.5" height="305.3"/>
	<line class="st4" x1="61" y1="256.2" x2="354.5" y2="256.2"/>
	<rect x="61" y="23.2" class="st1" width="293.5" height="305.3"/>
	<line class="st4" x1="61" y1="236.1" x2="354.5" y2="236.1"/>
	<rect x="61" y="23.2" class="st1" width="293.5" height="305.3"/>
	<line class="st4" x1="61" y1="216" x2="354.5" y2="216"/>
	<rect x="61" y="23.2" class="st1" width="293.5" height="305.3"/>
	<line class="st4" x1="61" y1="195.9" x2="354.5" y2="195.9"/>
	<rect x="61" y="23.2" class="st1" width="293.5" height="305.3"/>
	<line class="st4" x1="61" y1="175.9" x2="354.5" y2="175.9"/>
	<rect x="61" y="23.2" class="st1" width="293.5" height="305.3"/>
	<line class="st4" x1="61" y1="155.8" x2="354.5" y2="155.8"/>
	<rect x="61" y="23.2" class="st1" width="293.5" height="305.3"/>
	<line class="st4" x1="61" y1="135.7" x2="354.5" y2="135.7"/>
	<rect x="61" y="23.2" class="st1" width="293.5" height="305.3"/>
	<line class="st4" x1="61" y1="115.6" x2="354.5" y2="115.6"/>
	<rect x="61" y="23.2" class="st1" width="293.5" height="305.3"/>
	<line class="st4" x1="61" y1="95.5" x2="354.5" y2="95.5"/>
	<rect x="61" y="23.2" class="st1" width="293.5" height="305.3"/>
	<line class="st4" x1="61" y1="75.4" x2="354.5" y2="75.4"/>
	<rect x="61" y="23.2" class="st1" width="293.5" height="305.3"/>
	<line class="st4" x1="61" y1="55.3" x2="354.5" y2="55.3"/>
	<rect x="61" y="23.2" class="st1" width="293.5" height="305.3"/>
	<line class="st4" x1="61" y1="35.2" x2="354.5" y2="35.2"/>
	<rect x="61" y="23.2" class="st1" width="293.5" height="305.3"/>
	<line class="st4" x1="74.3" y1="328.5" x2="74.3" y2="23.2"/>
	<rect x="61" y="23.2" class="st1" width="293.5" height="305.3"/>
	<line class="st4" x1="178.9" y1="328.5" x2="178.9" y2="23.2"/>
	<rect x="61" y="23.2" class="st1" width="293.5" height="305.3"/>
	<line class="st4" x1="283.5" y1="328.5" x2="283.5" y2="23.2"/>
	<rect x="61" y="23.2" class="st1" width="293.5" height="305.3"/>
	<rect x="74.3" y="26.2" class="st5" width="266.8" height="18.1"/>
	<rect x="61" y="23.2" class="st1" width="293.5" height="305.3"/>
	<rect x="74.3" y="46.3" class="st5" width="123.9" height="18.1"/>
	<rect x="61" y="23.2" class="st1" width="293.5" height="305.3"/>
	<rect x="74.3" y="66.4" class="st5" width="122" height="18.1"/>
	<rect x="61" y="23.2" class="st1" width="293.5" height="305.3"/>
	<rect x="74.3" y="86.5" class="st5" width="110" height="18.1"/>
	<rect x="61" y="23.2" class="st1" width="293.5" height="305.3"/>
	<rect x="74.3" y="106.6" class="st5" width="105.7" height="18.1"/>
	<rect x="61" y="23.2" class="st1" width="293.5" height="305.3"/>
	<rect x="74.3" y="126.6" class="st5" width="83.2" height="18.1"/>
	<rect x="61" y="23.2" class="st1" width="293.5" height="305.3"/>
	<rect x="74.3" y="146.7" class="st5" width="72.2" height="18.1"/>
	<rect x="61" y="23.2" class="st1" width="293.5" height="305.3"/>
	<rect x="74.3" y="166.8" class="st5" width="72.2" height="18.1"/>
	<rect x="61" y="23.2" class="st1" width="293.5" height="305.3"/>
	<rect x="74.3" y="186.9" class="st5" width="70" height="18.1"/>
	<rect x="61" y="23.2" class="st1" width="293.5" height="305.3"/>
	<rect x="74.3" y="207" class="st5" width="64.6" height="18.1"/>
	<rect x="61" y="23.2" class="st1" width="293.5" height="305.3"/>
	<rect x="74.3" y="227.1" class="st5" width="58.8" height="18.1"/>
	<rect x="61" y="23.2" class="st1" width="293.5" height="305.3"/>
	<rect x="74.3" y="247.2" class="st5" width="56.7" height="18.1"/>
	<rect x="61" y="23.2" class="st1" width="293.5" height="305.3"/>
	<rect x="74.3" y="267.2" class="st5" width="56.3" height="18.1"/>
	<rect x="61" y="23.2" class="st1" width="293.5" height="305.3"/>
	<rect x="74.3" y="287.3" class="st5" width="52.9" height="18.1"/>
	<rect x="61" y="23.2" class="st1" width="293.5" height="305.3"/>
	<rect x="74.3" y="307.4" class="st5" width="52.5" height="18.1"/>
	<rect class="st1" width="360" height="360"/>
	<text transform="matrix(1 0 0 1 45.0799 318.3724)" class="st6 st7 st8">ms</text>
	<rect class="st1" width="360" height="360"/>
	<text transform="matrix(1 0 0 1 19.974 298.5405)" class="st6 st7 st8">continues</text>
	<rect class="st1" width="360" height="360"/>
	<rect x="46.3" y="271.9" class="st1" width="9.8" height="10.4"/>
	<text transform="matrix(1 0 0 1 46.29 278.4023)" class="st9"><tspan x="0" y="0" class="st6 st7 st8">0</tspan><tspan x="5.1" y="0" class="st6 st7 st8">0</tspan></text>
	<rect class="st1" width="360" height="360"/>
	<text transform="matrix(1 0 0 1 48.2579 258.2699)" class="st6 st7 st8">tx</text>
	<rect class="st1" width="360" height="360"/>
	<rect x="30.6" y="231.7" class="st1" width="25.4" height="10.4"/>
	<text transform="matrix(1 0 0 1 30.6401 238.2319)" class="st9"><tspan x="0" y="0" class="st6 st7 st8">issue</tspan><tspan x="20.8" y="0" class="st6 st7 st8">d</tspan></text>
	<rect class="st1" width="360" height="360"/>
	<rect x="34.1" y="211.6" class="st1" width="22" height="10.4"/>
	<text transform="matrix(1 0 0 1 34.08 218.1426)" class="st9"><tspan x="0" y="0" class="st6 st7 st8">stor</tspan><tspan x="14.8" y="0" class="st6 st7 st8">m</tspan></text>
	<rect class="st1" width="360" height="360"/>
	<text transform="matrix(1 0 0 1 26.0659 198.2802)" class="st6 st7 st8">weather</text>
	<rect class="st1" width="360" height="360"/>
	<text transform="matrix(1 0 0 1 46.2334 177.6202)" class="st6 st7 st10">till</text>
	<rect class="st1" width="360" height="360"/>
	<text transform="matrix(1 0 0 1 33.0901 157.5099)" class="st6 st7 st8">severe</text>
	<rect class="st1" width="360" height="360"/>
	<rect x="30.1" y="131.3" class="st1" width="25.9" height="10.4"/>
	<text transform="matrix(1 0 0 1 30.1499 137.792)" class="st9"><tspan x="0" y="0" class="st6 st7 st8">count</tspan><tspan x="21.5" y="0" class="st6 st7 st8">y</tspan></text>
	<rect class="st1" width="360" height="360"/>
	<rect x="42.4" y="111.2" class="st1" width="13.7" height="10.4"/>
	<text transform="matrix(1 0 0 1 42.3799 117.7124)" class="st9"><tspan x="0" y="0" class="st6 st7 st8">hai</tspan><tspan x="11.4" y="0" class="st6 st7 st8">l</tspan></text>
	<rect class="st1" width="360" height="360"/>
	<rect x="44.3" y="91.1" class="st1" width="11.7" height="10.4"/>
	<text transform="matrix(1 0 0 1 44.3398 97.6221)" class="st9"><tspan x="0" y="0" class="st6 st7 st8">cd</tspan><tspan x="8.7" y="0" class="st6 st7 st8">t</tspan></text>
	<rect class="st1" width="360" height="360"/>
	<text transform="matrix(1 0 0 1 43.85 78.56)" class="st6 st7 st8">pm</text>
	<rect class="st1" width="360" height="360"/>
	<rect x="33.1" y="50.9" class="st1" width="23" height="10.4"/>
	<text transform="matrix(1 0 0 1 33.0898 57.4424)" class="st9"><tspan x="0" y="0" class="st6 st7 st8">watc</tspan><tspan x="18.3" y="0" class="st6 st7 st8">h</tspan></text>
	<rect class="st1" width="360" height="360"/>
	<rect x="25.3" y="30.8" class="st1" width="30.8" height="10.4"/>
	<text transform="matrix(1 0 0 1 25.2598 37.3623)" class="st9"><tspan x="0" y="0" class="st6 st7 st8">warnin</tspan><tspan x="26.6" y="0" class="st6 st7 st8">g</tspan></text>
	<rect class="st1" width="360" height="360"/>
	<line class="st11" x1="58.3" y1="316.5" x2="61" y2="316.5"/>
	<rect class="st1" width="360" height="360"/>
	<line class="st11" x1="58.3" y1="296.4" x2="61" y2="296.4"/>
	<rect class="st1" width="360" height="360"/>
	<line class="st11" x1="58.3" y1="276.3" x2="61" y2="276.3"/>
	<rect class="st1" width="360" height="360"/>
	<line class="st11" x1="58.3" y1="256.2" x2="61" y2="256.2"/>
	<rect class="st1" width="360" height="360"/>
	<line class="st11" x1="58.3" y1="236.1" x2="61" y2="236.1"/>
	<rect class="st1" width="360" height="360"/>
	<line class="st11" x1="58.3" y1="216" x2="61" y2="216"/>
	<rect class="st1" width="360" height="360"/>
	<line class="st11" x1="58.3" y1="195.9" x2="61" y2="195.9"/>
	<rect class="st1" width="360" height="360"/>
	<line class="st11" x1="58.3" y1="175.9" x2="61" y2="175.9"/>
	<rect class="st1" width="360" height="360"/>
	<line class="st11" x1="58.3" y1="155.8" x2="61" y2="155.8"/>
	<rect class="st1" width="360" height="360"/>
	<line class="st11" x1="58.3" y1="135.7" x2="61" y2="135.7"/>
	<rect class="st1" width="360" height="360"/>
	<line class="st11" x1="58.3" y1="115.6" x2="61" y2="115.6"/>
	<rect class="st1" width="360" height="360"/>
	<line class="st11" x1="58.3" y1="95.5" x2="61" y2="95.5"/>
	<rect class="st1" width="360" height="360"/>
	<line class="st11" x1="58.3" y1="75.4" x2="61" y2="75.4"/>
	<rect class="st1" width="360" height="360"/>
	<line class="st11" x1="58.3" y1="55.3" x2="61" y2="55.3"/>
	<rect class="st1" width="360" height="360"/>
	<line class="st11" x1="58.3" y1="35.2" x2="61" y2="35.2"/>
	<rect class="st1" width="360" height="360"/>
	<line class="st11" x1="74.3" y1="331.2" x2="74.3" y2="328.5"/>
	<rect class="st1" width="360" height="360"/>
	<line class="st11" x1="178.9" y1="331.2" x2="178.9" y2="328.5"/>
	<rect class="st1" width="360" height="360"/>
	<line class="st11" x1="283.5" y1="331.2" x2="283.5" y2="328.5"/>
	<rect class="st1" width="360" height="360"/>
	<text transform="matrix(1 0 0 1 71.9 339.74)" class="st6 st7 st8">0</text>
	<rect class="st1" width="360" height="360"/>
	<rect x="169.1" y="332.2" class="st1" width="19.6" height="10.4"/>
	<text transform="matrix(1 0 0 1 169.1299 338.7129)" class="st9"><tspan x="0" y="0" class="st6 st7 st8">500</tspan><tspan x="14.9" y="0" class="st6 st7 st8">0</tspan></text>
	<rect class="st1" width="360" height="360"/>
	<text transform="matrix(1 0 0 1 271.25 339.74)" class="st6 st7 st8">10000</text>
	<rect class="st1" width="360" height="360"/>
	<text transform="matrix(1 0 0 1 193.09 352.21)" class="st7 st12">Count</text>
	<rect class="st1" width="360" height="360"/>
	<rect x="3.9" y="132.7" class="st1" width="13" height="76.8"/>
	<text transform="matrix(6.123234e-17 -1 1 6.123234e-17 13.6963 209.4805)" class="st9"><tspan x="0" y="0" class="st7 st12">Unique</tspan><tspan x="39.3" y="0" class="st7 st12 st13"> </tspan><tspan x="43.3" y="0" class="st7 st12">words</tspan></text>
	<rect class="st1" width="360" height="360"/>
	<text transform="matrix(1 0 0 1 61.0101 15.3381)" class="st7 st12">Most common words in tornado-related tweets</text>
</g>
</svg>
